<svg xmlns="http://www.w3.org/2000/svg" viewBox="93 -111 1024 723"><title>Farma Mobile Dashboard Native App Icon</title><path fill="#F05455" d="M1116.5 362.6c-0.8-26-12.1-37.2-38.1-38.2 -20.6-0.7-41.3 0.3-61.8-0.6 -30.4-1.3-43.8-14.9-44.6-44.9 -0.5-18.9-0.4-37.8 0-56.7 0.6-31.8 13.8-45.4 45.4-46.6 18.9-0.7 37.8 0.1 56.7-0.4 31-0.7 41.9-11.4 42.6-41.8 0.4-17.2 0.2-34.4 0.1-51.5 -0.3-38.2-10.9-48.9-48.8-49.4 -6.9-0.1-13.7 0-20.6 0 -69.2 0-73.5 4.1-73.5 72.2 0 70.3-3.6 73.8-74.4 73.8 -12.7 0-23.1 0.1-31.6 0.7 -3.3-0.1-6.7-0.2-10-0.3 -29.7-1.6-41.6-13.9-42.5-43 1-21 0.9-42.1-0.1-63.1 -0.3-5.7-1.3-10.6-3-15.1 -0.1-0.2-0.1-0.3-0.1-0.5 -0.3-0.8-0.7-1.5-1-2.2 -5.5-12.9-16.9-20.4-34.2-21.3 -22.3-1.1-44.7-1.2-66.9 0 -0.6 0-1.1 0.2-1.7 0.2 -25.6-2-36.7-14.2-38.2-42.1 -0.9-17.1-0.3-34.3-0.5-51.5 -0.5-40.3-10.7-50.6-50.1-50.8 -6.8-0.1-13.7 0-20.6 0 -68.8 0-71.6 2.8-71.6 70.6 0 59.8-2.7 71.6-45.9 73.9 -1.6-0.1-3.3-0.1-5-0.2 -6.9-0.1-13.7-0.1-20.6 0 -31.2 0-49.2 0.9-59.5 8.1 -13.6 8.5-15 26.9-15 66.2 0 6.9-0.1 13.8 0 20.6 0 2.8 0.2 5.3 0.3 7.8 -2.6 40.8-15.1 43.3-73.8 43.4 -8 0-15.1 0.1-21.4 0.2 -47.3-1.8-50-12.4-50.1-73.5 0-68.1-4.2-72.2-73.5-72.2 -6.9 0-13.7-0.1-20.6 0.1 -38 0.6-48.5 11.2-48.8 49.4 -0.1 17.2-0.3 34.3 0.1 51.5 0.7 30.4 11.6 41.1 42.6 41.8 18.9 0.4 37.8-0.4 56.7 0.4 30.3 1.2 43.4 13.8 45.1 42.6 -0.6 8.5-0.7 18.8-0.7 31.4 0 6.8 0 13.7 0 20.6 0 4.7 0.2 9 0.6 12.9 -2 26.9-15.3 39.4-44.2 40.7 -20.6 0.9-41.2-0.2-61.8 0.6 -26.1 0.9-37.3 12.2-38.2 38.2 -0.6 21.5-0.6 43 0 64.4 0.7 25.6 12.1 38.2 37.5 39.6 22.3 1.2 44.7 1.1 67 0 24.5-1.2 37.3-15.6 38.1-40 0.6-20.6-0.1-41.2 0.4-61.8 0.7-29.5 12.7-41.8 42.5-43.4 17.1-0.9 34.3-0.2 51.5-0.5 1.9 0 3.8-0.1 5.6-0.2 1.2 0 2.3 0 3.5 0.1 28.8 1.5 40.9 13.3 42.3 40.7 -1.2 21.9-1 43.9 0.1 65.9 0.6 11.3 4.1 20.1 10 26.4 0.4 0.4 0.7 0.9 1.1 1.3 0.3 0.3 0.7 0.6 1 0.9 6.3 6 15.1 9.5 26.5 10.1 22 1.1 44.1 1.2 66 0.1 27.3 1.5 39 13.5 40.5 42.3 0.9 17.1 0.3 34.4 0.5 51.5 0.5 40.3 10.7 50.6 50.1 50.8 6.9 0 13.7 0 20.6 0 68.8 0 71.6-2.7 71.6-70.5 0.1-61.9 2.7-72.4 50.4-74.1 0.3 0 0.5 0 0.8 0 6.9 0.1 13.7 0 20.6 0 26.4 0 43.4-0.6 54.2-5.1 18.3-7.2 20-25 20-68.7 0-6.9 0.1-13.7-0.1-20.6 0-1.9-0.1-3.7-0.2-5.5 2.2-43.4 14-46.1 73.9-46.1 11.7 0 21.4-0.1 29.6-0.6 4 0.1 8.1 0 12.1 0.2 29.8 1.6 41.8 14 42.5 43.4 0.5 20.6-0.2 41.2 0.4 61.8 0.7 24.3 13.6 38.7 38.1 40 22.3 1.1 44.7 1.2 67 0 25.3-1.4 36.8-14 37.5-39.6C1117.1 405.6 1117.2 384.1 1116.5 362.6zM816.9 278.1c-0.6 31.8-13.8 45.4-45.5 46.7 -0.2 0-0.4 0-0.6 0 -1.5 0-2.9-0.1-4.5-0.1 -17.2-0.1-34.4-0.3-51.5 0.1 -11.6 0.3-20.3 2-26.7 5.8 -11 5.9-15.5 17.2-15.9 36.3 -0.4 17.2-0.2 34.4-0.1 51.5 0 2.9 0.1 5.6 0.3 8.2 -1.9 29.7-15.5 42.2-46.4 42.8 -18.9 0.4-37.8 0.5-56.7 0 -28.9-0.8-42.4-13.4-44.6-41.4 0.6-21.3 0.6-42.7 0-64 -0.4-13.3-3.6-22.8-10.2-28.9 -6.2-6.5-15.6-9.7-28.9-10.1 -21.3-0.7-42.7-0.6-64.1 0 -26.5-2-39-14.3-41-39.9 0.3-3.7 0.5-7.8 0.5-12.2 0-6.9 0-13.7 0-20.6 0-12.8-0.1-23.4-0.7-32 1.5-28.2 14-41 42.4-42.9 2.4 0.1 4.9 0.2 7.6 0.2 17.2 0.2 34.4 0.3 51.5-0.1 14.7-0.3 24.7-3.1 31.3-9.4 7.7-6.5 11.2-16.9 11.5-33.2 0.4-17.2 0.2-34.3 0.1-51.5 0-3.4-0.2-6.5-0.4-9.5 2.4-28.4 16-40.5 46.2-41.1 18.9-0.4 37.8-0.5 56.7 0 29.7 0.8 43.3 14 44.8 43.8 -0.5 20.4-0.5 40.8 0.1 61.2 0.3 9.9 2.1 17.6 5.7 23.4 5.7 10.5 16.2 15.5 33.1 16 21.5 0.7 42.9 0.6 64.4 0 0.7 0 1.3-0.1 2-0.2 26.6 2.7 38.5 16.2 39.3 44.3C817.4 240.3 817.3 259.2 816.9 278.1z"/></svg>
